<?xml version="1.0" standalone="no"?>
<!DOCTYPE svg PUBLIC "-//W3C//DTD SVG 20010904//EN"
 "http://www.w3.org/TR/2001/REC-SVG-20010904/DTD/svg10.dtd">
<svg version="1.0" xmlns="http://www.w3.org/2000/svg"
 width="1024.000000pt" height="1024.000000pt" viewBox="0 0 1024.000000 1024.000000"
 preserveAspectRatio="xMidYMid meet">

<g transform="translate(0.000000,1024.000000) scale(0.100000,-0.100000)"
fill="#000000" stroke="none">
<path d="M7158 8143 c12 -2 30 -2 40 0 9 3 -1 5 -23 4 -22 0 -30 -2 -17 -4z"/>
<path d="M3108 8133 c23 -2 59 -2 80 0 20 2 1 4 -43 4 -44 0 -61 -2 -37 -4z"/>
<path d="M3258 8133 c18 -2 45 -2 60 0 15 2 0 4 -33 4 -33 0 -45 -2 -27 -4z"/>
<path d="M7323 8133 c15 -2 37 -2 50 0 12 2 0 4 -28 4 -27 0 -38 -2 -22 -4z"/>
<path d="M3008 8123 c6 -2 18 -2 25 0 6 3 1 5 -13 5 -14 0 -19 -2 -12 -5z"/>
<path d="M3358 8123 c7 -3 16 -2 19 1 4 3 -2 6 -13 5 -11 0 -14 -3 -6 -6z"/>
<path d="M7440 8119 c60 -10 108 -9 55 2 -22 4 -53 8 -70 7 -22 0 -19 -3 15
-9z"/>
<path d="M2928 8113 c7 -3 16 -2 19 1 4 3 -2 6 -13 5 -11 0 -14 -3 -6 -6z"/>
<path d="M3406 8105 c22 -17 12 -20 -18 -4 -15 8 -23 8 -32 -2 -8 -9 -8 -10 2
-4 8 4 25 -1 41 -13 24 -18 27 -18 26 -3 -1 22 -14 41 -28 41 -6 0 -2 -7 9
-15z"/>
<path d="M2878 8103 c6 -2 18 -2 25 0 6 3 1 5 -13 5 -14 0 -19 -2 -12 -5z"/>
<path d="M2985 8100 c7 -11 55 -9 55 2 0 4 -14 8 -31 8 -17 0 -28 -4 -24 -10z"/>
<path d="M3055 8100 c4 -6 11 -8 16 -5 14 9 11 15 -7 15 -8 0 -12 -5 -9 -10z"/>
<path d="M7555 8100 c27 -12 43 -12 25 0 -8 5 -22 9 -30 9 -10 0 -8 -3 5 -9z"/>
<path d="M2948 8093 c7 -3 16 -2 19 1 4 3 -2 6 -13 5 -11 0 -14 -3 -6 -6z"/>
<path d="M2865 8080 c-4 -6 -11 -7 -17 -4 -6 4 -8 2 -4 -4 3 -6 2 -13 -4 -17
-5 -3 -10 -11 -10 -18 0 -6 7 -2 15 11 9 12 30 26 48 31 31 9 31 9 5 10 -15 1
-30 -4 -33 -9z"/>
<path d="M2790 8060 c0 -5 7 -7 15 -4 8 4 15 8 15 10 0 2 -7 4 -15 4 -8 0 -15
-4 -15 -10z"/>
<path d="M2911 8043 c-1 -16 3 -21 14 -17 8 4 15 10 15 16 0 5 -4 7 -9 4 -5
-4 -12 0 -14 6 -3 7 -6 3 -6 -9z"/>
<path d="M3420 8038 c-25 -21 -25 -21 -2 -13 19 5 25 3 29 -14 6 -23 23 -29
23 -8 -1 6 -6 22 -13 34 l-12 21 -25 -20z"/>
<path d="M2716 8041 c-3 -5 5 -8 19 -8 14 0 22 3 19 8 -3 5 -11 9 -19 9 -8 0
-16 -4 -19 -9z"/>
<path d="M2772 8029 c2 -6 14 -16 27 -20 27 -11 19 6 -11 22 -16 8 -19 8 -16
-2z"/>
<path d="M7761 8036 c10 -9 69 -36 69 -32 0 6 -55 36 -66 36 -4 0 -5 -2 -3 -4z"/>
<path d="M2670 8020 c0 -5 5 -10 10 -10 6 0 10 5 10 10 0 6 -4 10 -10 10 -5 0
-10 -4 -10 -10z"/>
<path d="M2845 8021 c-3 -5 -2 -12 3 -15 5 -3 9 1 9 9 0 17 -3 19 -12 6z"/>
<path d="M3373 8015 c-3 -9 -3 -18 -1 -21 3 -3 8 4 11 16 6 23 -1 27 -10 5z"/>
<path d="M2630 8006 c0 -2 7 -7 16 -10 8 -3 12 -2 9 4 -6 10 -25 14 -25 6z"/>
<path d="M2713 8003 c9 -2 23 -2 30 0 6 3 -1 5 -18 5 -16 0 -22 -2 -12 -5z"/>
<path d="M6961 7984 c0 -11 3 -14 6 -6 3 7 2 16 -1 19 -3 4 -6 -2 -5 -13z"/>
<path d="M2820 7986 c0 -2 8 -10 18 -17 15 -13 16 -12 3 4 -13 16 -21 21 -21
13z"/>
<path d="M3460 7971 c0 -5 5 -13 10 -16 6 -3 10 -2 10 4 0 5 -4 13 -10 16 -5
3 -10 2 -10 -4z"/>
<path d="M6950 7863 c0 -54 4 -103 8 -110 4 -6 7 38 7 98 0 60 -3 109 -7 109
-5 0 -8 -44 -8 -97z"/>
<path d="M2591 7928 c-7 -11 -10 -23 -7 -26 3 -3 7 1 7 9 1 8 4 1 8 -16 l7
-30 5 38 c6 44 -2 54 -20 25z"/>
<path d="M2622 7925 c-1 -14 2 -25 6 -25 4 0 9 11 10 25 1 14 -2 25 -6 25 -4
0 -9 -11 -10 -25z"/>
<path d="M3492 7920 c0 -19 2 -27 5 -17 2 9 2 25 0 35 -3 9 -5 1 -5 -18z"/>
<path d="M2830 7930 c0 -5 5 -10 10 -10 6 0 10 5 10 10 0 6 -4 10 -10 10 -5 0
-10 -4 -10 -10z"/>
<path d="M2695 7920 c-3 -5 -11 -7 -19 -4 -12 5 -42 -44 -32 -53 2 -2 7 5 11
16 3 12 11 21 16 21 6 0 8 -4 5 -8 -2 -4 -1 -14 4 -22 7 -12 11 -12 26 1 10 8
15 9 11 2 -5 -7 -1 -9 12 -6 16 4 19 1 14 -16 -5 -21 -7 -21 -24 -5 -14 12
-19 14 -19 4 0 -7 -3 -10 -7 -7 -3 4 -15 -1 -26 -10 -11 -10 -17 -13 -14 -7 4
7 0 14 -8 18 -8 3 -15 1 -15 -4 0 -6 -5 -10 -11 -10 -5 0 -7 6 -3 13 4 6 4 9
-1 5 -11 -11 -47 11 -39 24 4 7 3 8 -5 4 -6 -4 -8 -12 -5 -18 4 -6 -1 -8 -16
-3 -19 6 -22 4 -17 -9 4 -9 2 -16 -3 -16 -6 0 -10 -4 -10 -9 0 -14 30 -7 42
10 7 11 11 11 15 1 2 -6 10 -9 16 -5 7 4 6 -1 -2 -10 -15 -18 -26 -23 -16 -7
7 11 -8 14 -18 4 -9 -9 4 -35 14 -28 10 6 12 -9 2 -19 -3 -4 -12 1 -20 11 -13
16 -14 15 -10 -5 3 -15 1 -20 -9 -16 -10 4 -11 10 -3 25 14 25 7 31 -15 15
-16 -12 -17 -17 -6 -36 6 -13 9 -25 6 -29 -3 -3 -6 0 -6 6 0 6 -6 10 -12 8 -7
-1 -10 -1 -5 1 4 3 7 9 7 14 0 6 -4 7 -10 4 -6 -4 -7 1 -3 11 5 13 3 15 -7 9
-8 -5 -11 -3 -8 6 3 8 10 13 15 12 5 -1 10 5 10 13 0 10 -4 11 -11 4 -16 -16
-26 -12 -26 10 0 11 -3 20 -7 20 -5 0 -8 -11 -8 -24 0 -13 5 -22 10 -19 6 3 4
0 -4 -8 -10 -11 -15 -11 -18 -1 -3 6 -10 12 -16 12 -7 -1 -2 -9 11 -20 20 -17
21 -20 6 -34 -18 -19 -48 -22 -39 -3 4 6 -5 -1 -18 -16 l-24 -29 -5 26 c-5 24
2 31 25 27 5 -1 6 3 2 9 -4 6 -13 7 -23 1 -21 -11 -67 -91 -53 -91 6 0 11 7
11 16 0 8 4 13 9 9 5 -3 12 3 14 12 3 12 5 9 6 -9 1 -21 -5 -28 -30 -37 -17
-6 -33 -20 -36 -31 -3 -11 -9 -20 -13 -20 -16 0 -16 -35 0 -47 13 -10 12 -11
-6 -7 -18 5 -23 -4 -48 -87 -63 -209 -67 -257 -76 -824 -4 -286 -10 -529 -13
-540 -3 -11 -11 -52 -18 -92 -7 -40 -16 -70 -20 -67 -5 3 -6 -2 -3 -11 6 -15
-27 -108 -55 -155 -28 -47 -83 -110 -91 -105 -4 3 -14 -3 -21 -13 -13 -16 -12
-16 6 -2 20 15 20 14 1 -8 -11 -12 -26 -21 -35 -20 -9 2 -15 -3 -14 -9 4 -17
-71 -54 -94 -47 -13 4 -15 3 -5 -4 18 -12 -23 -24 -58 -16 -17 4 -21 3 -12 -4
10 -7 4 -11 -22 -15 -20 -3 -49 -15 -65 -26 -15 -11 -31 -17 -35 -13 -4 4 -7
2 -6 -3 4 -20 0 -36 -9 -31 -5 4 -7 -4 -4 -16 3 -14 1 -18 -4 -11 -11 16 -5
-304 7 -349 12 -43 46 -73 101 -89 21 -7 37 -15 35 -18 -2 -3 12 -6 31 -7 19
0 38 -5 41 -10 4 -5 14 -10 22 -12 22 -5 90 -47 122 -76 43 -38 99 -117 92
-128 -4 -6 -2 -8 3 -5 13 8 26 -20 16 -35 -3 -6 -1 -8 4 -5 14 9 24 -18 16
-40 -4 -11 -3 -14 5 -9 12 7 17 -10 14 -46 -1 -10 2 -18 8 -18 5 0 8 -10 8
-22 -1 -13 -1 -39 0 -58 2 -28 5 -32 13 -20 7 11 8 3 4 -27 -4 -24 -3 -43 2
-43 4 0 6 -183 5 -407 -3 -367 7 -663 25 -713 3 -8 7 -32 9 -54 2 -21 7 -43
11 -50 4 -6 8 -15 10 -21 10 -46 13 -59 19 -78 15 -51 105 -241 116 -245 4 -2
8 -9 8 -15 0 -16 52 -79 125 -152 57 -58 150 -126 205 -151 99 -46 127 -58
144 -61 11 -2 25 -8 33 -14 7 -6 13 -9 13 -5 0 3 16 0 35 -8 19 -8 35 -13 35
-11 0 3 11 0 24 -5 13 -5 45 -11 72 -14 26 -3 75 -11 110 -17 35 -6 107 -9
161 -7 126 5 165 23 202 93 24 47 26 58 26 195 0 132 -2 149 -24 193 -13 26
-36 58 -52 71 -29 25 -119 46 -200 46 -197 1 -352 72 -434 200 -22 34 -40 65
-41 68 0 4 -3 14 -6 22 -21 59 -31 208 -40 615 -5 253 -10 479 -11 502 0 23
-4 40 -7 38 -7 -4 -33 162 -33 203 1 12 -4 22 -9 22 -6 0 -8 7 -4 15 3 8 1 15
-5 15 -6 0 -9 7 -5 15 3 8 1 15 -4 15 -5 0 -13 15 -19 33 -15 52 -35 101 -46
114 -5 6 -26 40 -45 74 -19 35 -71 99 -115 144 -44 44 -79 83 -78 86 1 4 -5 6
-15 5 -9 0 -17 6 -17 14 0 8 -7 14 -15 13 -8 -2 -29 9 -45 23 -17 14 -25 23
-20 20 6 -2 17 4 23 15 12 19 11 19 -10 9 l-23 -11 23 18 c142 110 172 132
172 127 0 -4 7 -1 15 6 8 7 12 16 10 21 -3 4 8 23 23 41 16 18 48 62 71 98 22
36 45 71 51 78 6 6 8 12 6 12 -3 0 4 24 15 53 91 228 108 360 110 851 1 365 9
529 30 636 14 70 72 192 107 226 47 44 109 76 134 69 16 -4 19 -3 10 3 -11 7
-10 11 5 17 27 12 35 13 226 28 98 8 184 20 190 26 8 8 7 11 -4 11 -10 1 -9 5
5 15 11 8 29 12 39 9 14 -4 18 -2 15 7 -3 8 -17 15 -31 17 -15 2 -27 8 -27 14
0 6 3 8 7 5 3 -4 17 3 30 15 17 16 20 24 12 35 -9 10 -7 13 10 13 29 0 26 -24
-5 -48 -22 -15 -24 -20 -11 -25 22 -8 44 21 50 66 4 32 3 36 -9 26 -12 -10
-18 -9 -27 1 -10 10 -9 11 3 5 13 -8 13 -7 1 8 -10 12 -10 17 -2 17 8 0 10 8
6 20 -5 15 -2 20 12 19 10 0 13 -3 6 -5 -7 -3 -9 -12 -6 -20 11 -29 20 -12 20
39 0 28 -2 40 -4 25 -2 -16 -11 -28 -19 -28 -17 0 -19 17 -1 23 6 3 3 5 -9 4
-16 -1 -19 -6 -16 -24 3 -14 -1 -23 -8 -23 -7 0 -10 7 -7 15 4 8 2 17 -2 19
-17 11 -20 -8 -6 -43 12 -28 12 -32 1 -18 -14 19 -31 24 -20 6 5 -8 1 -8 -14
0 -16 9 -20 19 -18 53 3 41 2 43 -25 43 -16 1 -26 -1 -24 -4 3 -2 0 -10 -7
-18 -8 -11 -8 -17 2 -26 7 -7 10 -7 7 -2 -3 6 2 19 10 30 13 16 15 17 10 3 -4
-12 -1 -18 9 -18 8 0 12 -5 9 -10 -4 -6 -11 -8 -16 -5 -5 4 -9 2 -9 -3 0 -6
-12 -13 -26 -16 -21 -6 -24 -11 -18 -29 6 -19 5 -20 -10 -8 -12 10 -13 17 -6
26 8 9 8 15 0 20 -6 3 -8 11 -4 16 9 15 12 59 4 59 -3 0 -17 -12 -31 -26 -15
-16 -19 -24 -9 -22 8 2 18 8 22 13 5 6 8 6 8 -2 0 -6 -5 -15 -10 -18 -6 -4 -7
-12 -3 -18 5 -8 2 -8 -9 1 -12 10 -20 8 -42 -9 -26 -20 -28 -20 -46 -4 -10 9
-24 14 -31 9 -8 -4 -10 -3 -5 4 4 8 2 10 -7 6 -8 -3 -18 -1 -22 5 -8 14 -25
14 -25 1 0 -5 6 -9 13 -7 7 1 11 -7 9 -20 -2 -14 3 -23 14 -25 16 -3 16 -4 -1
-18 -15 -12 -17 -12 -10 -1 6 11 3 13 -13 9 -12 -4 -25 -2 -28 3 -3 5 0 8 7 7
6 -2 14 3 16 10 3 6 0 12 -6 12 -15 0 -14 60 2 61 6 1 1 4 -13 8 -15 4 -28 3
-32 -3 -11 -16 -10 -26 3 -23 6 1 13 -11 15 -28 3 -24 2 -26 -5 -10 -5 11 -7
23 -4 27 2 4 -3 5 -12 1 -13 -4 -14 -7 -3 -14 10 -7 11 -10 0 -21 -11 -11 -16
-9 -28 6 -11 16 -11 22 -1 28 9 6 8 8 -3 8 -13 0 -13 1 0 10 8 5 10 10 4 10
-6 0 -17 -6 -23 -14 -7 -8 -22 -13 -33 -11 -12 3 -28 -1 -35 -7 -7 -6 -16 -8
-20 -5 -3 4 -13 1 -22 -6 -14 -10 -14 -10 -3 5 8 9 19 15 26 12 6 -2 22 5 34
16 25 23 30 39 7 20 -12 -10 -19 -10 -27 -2 -7 7 -17 12 -22 12 -6 0 -4 -5 4
-11 12 -9 11 -10 -8 -6 -12 3 -20 1 -17 -3 10 -16 -12 -19 -31 -4 -10 9 -14
13 -7 10 6 -4 14 -2 18 4 3 6 -1 13 -9 16 -9 3 -13 11 -9 17 3 5 2 7 -4 4 -6
-4 -9 -17 -8 -29 1 -13 -4 -33 -12 -45 -11 -19 -11 -23 5 -32 15 -9 15 -10 -3
-11 -16 0 -21 6 -21 24 0 14 4 22 10 19 5 -4 6 -1 0 8 -5 8 -7 21 -6 30 2 10
-4 16 -15 16 -50 0 -54 2 -43 23 11 20 7 29 -5 10z m48 -107 c-7 -17 -38 -17
-52 1 -9 11 -5 13 23 13 23 -1 32 -5 29 -14z m-83 -15 c0 -6 -6 -5 -15 2 -8 7
-15 14 -15 16 0 2 7 1 15 -2 8 -4 15 -11 15 -16z m170 -3 c5 0 10 -3 10 -7 0
-9 -4 -10 -25 -2 -8 4 -15 14 -15 23 0 14 2 14 10 1 5 -8 14 -15 20 -15z m90
12 c0 16 33 9 38 -8 3 -12 2 -12 -6 0 -7 9 -11 10 -17 2 -4 -7 -1 -20 7 -29
12 -15 11 -16 -4 -4 -11 9 -18 10 -23 2 -3 -6 -11 -8 -16 -4 -5 3 -16 1 -23
-5 -9 -8 -13 -7 -13 3 0 9 9 13 24 11 22 -2 24 1 18 24 -4 19 -3 22 5 11 5 -9
10 -10 10 -3z m191 -15 c-7 -2 -18 1 -23 6 -8 8 -4 9 13 5 13 -4 18 -8 10 -11z
m106 -2 c1 -11 -2 -22 -6 -24 -6 -4 -7 26 -2 42 3 8 7 -1 8 -18z m-602 0 c-3
-5 -11 -10 -16 -10 -6 0 -7 5 -4 10 3 6 11 10 16 10 6 0 7 -4 4 -10z m115 -10
c0 -5 -5 -10 -11 -10 -5 0 -7 5 -4 10 3 6 8 10 11 10 2 0 4 -4 4 -10z m45 -10
c3 -6 -1 -7 -9 -4 -18 7 -21 14 -7 14 6 0 13 -4 16 -10z m243 -15 c-3 -3 -9 2
-12 12 -6 14 -5 15 5 6 7 -7 10 -15 7 -18z m122 14 c0 -4 -7 -9 -15 -13 -9 -3
-15 0 -15 8 0 7 7 13 15 13 8 0 15 -4 15 -8z m-676 -12 c-3 -8 2 -20 11 -27
17 -14 20 -30 6 -30 -5 0 -16 7 -24 15 -8 8 -18 11 -22 7 -4 -4 0 5 10 21 19
29 28 35 19 14z m797 -4 c13 -16 12 -17 -3 -4 -10 7 -18 15 -18 17 0 8 8 3 21
-13z m-81 -10 c0 -10 -4 -14 -8 -8 -4 6 -11 13 -16 18 -5 4 -2 7 7 7 10 0 17
-8 17 -17z m205 -19 c-32 -30 -35 -30 -27 -1 6 26 20 37 39 30 10 -4 7 -12
-12 -29z m-831 0 c5 -14 4 -15 -9 -4 -17 14 -19 20 -6 20 5 0 12 -7 15 -16z
m596 1 c-7 -9 -15 -13 -19 -10 -3 3 1 10 9 15 21 14 24 12 10 -5z m-30 -7 c0
-4 -7 -8 -15 -8 -8 0 -15 4 -15 8 0 5 7 9 15 9 8 0 15 -4 15 -9z m-692 -23
c-3 -3 -9 2 -12 12 -6 14 -5 15 5 6 7 -7 10 -15 7 -18z m380 0 c-3 -3 -9 2
-12 12 -6 14 -5 15 5 6 7 -7 10 -15 7 -18z m182 13 c0 -6 -11 -7 -25 -4 -20 5
-23 3 -19 -11 5 -15 4 -15 -4 -3 -6 8 -9 17 -7 21 7 10 55 8 55 -3z m279 -22
c-3 -3 -11 5 -18 17 -13 21 -12 21 5 5 10 -10 16 -20 13 -22z m141 24 c0 -5
-2 -10 -4 -10 -3 0 -8 5 -11 10 -3 6 -1 10 4 10 6 0 11 -4 11 -10z m-245 -10
c-3 -5 -11 -10 -16 -10 -6 0 -7 5 -4 10 3 6 11 10 16 10 6 0 7 -4 4 -10z
m-777 -19 c3 -8 -1 -12 -9 -9 -7 2 -15 10 -17 17 -3 8 1 12 9 9 7 -2 15 -10
17 -17z m816 -9 c2 -4 -5 -9 -17 -9 -17 -2 -19 0 -7 7 18 12 18 12 24 2z m39
-7 c-3 -9 -8 -14 -10 -11 -3 3 -2 9 2 15 9 16 15 13 8 -4z m-893 -5 c0 -5 -2
-10 -4 -10 -3 0 -8 5 -11 10 -3 6 -1 10 4 10 6 0 11 -4 11 -10z m-45 -10 c-3
-5 -1 -10 4 -10 6 0 11 -5 11 -11 0 -6 -7 -8 -16 -5 -8 3 -13 2 -11 -2 3 -4 1
-16 -4 -27 -6 -16 -8 -13 -8 16 -1 20 2 39 6 42 10 11 25 8 18 -3z m760 -19
c3 -5 1 -12 -5 -16 -5 -3 -10 1 -10 9 0 18 6 21 15 7z m-591 -13 c-3 -4 -11
-5 -19 -1 -21 7 -19 12 4 10 11 0 18 -5 15 -9z m749 -25 c-4 -11 -2 -14 5 -9
21 12 62 17 62 7 0 -10 -49 -21 -86 -18 -11 1 -21 7 -21 14 0 6 5 11 11 10 6
-1 10 6 10 16 -2 14 1 15 11 7 8 -6 11 -19 8 -27z m123 0 c-1 -1 -12 0 -25 4
-15 4 -19 8 -10 13 10 7 42 -10 35 -17z m-981 7 c3 -6 -1 -7 -9 -4 -18 7 -21
14 -7 14 6 0 13 -4 16 -10z m805 -16 c0 -19 -11 -22 -41 -14 -16 5 -31 5 -34
0 -3 -4 -22 -4 -42 0 -26 6 -40 5 -45 -3 -6 -9 -8 -9 -8 0 0 7 -7 10 -17 7
-14 -5 -15 -4 -4 4 8 6 36 8 64 6 27 -3 47 -1 44 3 -3 4 15 8 39 8 25 0 44 -5
44 -11z m-265 -34 c-3 -5 -12 -10 -18 -10 -7 0 -6 4 3 10 19 12 23 12 15 0z
m-15 -45 c-7 -8 -17 -15 -23 -15 -5 0 -2 9 8 20 21 23 35 19 15 -5z m-656 -33
c-4 -15 -6 -35 -5 -44 1 -10 -2 -18 -6 -18 -13 0 -15 58 -3 65 5 3 10 16 11
28 0 12 3 16 6 9 3 -7 2 -25 -3 -40z m616 44 c0 -2 -7 -7 -16 -10 -8 -3 -12
-2 -9 4 6 10 25 14 25 6z m0 -37 c0 -5 -4 -7 -10 -4 -5 3 -10 -1 -10 -10 0 -9
-4 -14 -10 -10 -13 8 -1 35 16 35 8 0 14 -5 14 -11z m-80 -95 c0 -11 -49 48
-50 59 0 5 11 -5 25 -21 14 -17 25 -34 25 -38z m-22 -29 c-3 -3 -9 2 -12 12
-6 14 -5 15 5 6 7 -7 10 -15 7 -18z m-546 -47 c-6 -6 -7 0 -4 19 5 21 7 23 10
9 2 -10 0 -22 -6 -28z"/>
<path d="M2850 7916 c-14 -8 -29 -12 -34 -9 -5 4 -6 2 -3 -4 4 -6 24 -10 46
-10 22 0 38 4 35 9 -3 4 -10 6 -15 3 -5 -4 -9 -2 -9 4 0 5 6 12 13 14 6 3 8 6
2 6 -5 0 -21 -6 -35 -13z"/>
<path d="M3078 7897 c-3 -14 0 -24 7 -24 7 0 10 10 7 24 -2 13 -6 23 -7 23 -1
0 -5 -10 -7 -23z"/>
<path d="M3224 7900 c0 -13 4 -16 10 -10 7 7 7 13 0 20 -6 6 -10 3 -10 -10z"/>
<path d="M2449 7883 l-24 -28 28 24 c25 23 32 31 24 31 -2 0 -14 -12 -28 -27z"/>
<path d="M2514 7899 c-3 -5 6 -8 20 -7 26 2 26 10 1 14 -8 1 -17 -2 -21 -7z"/>
<path d="M2930 7890 c0 -5 5 -10 11 -10 5 0 7 5 4 10 -3 6 -8 10 -11 10 -2 0
-4 -4 -4 -10z"/>
<path d="M3125 7883 c-14 -11 -15 -14 -4 -10 9 3 21 1 27 -5 12 -12 4 -41 -9
-32 -14 9 -10 -12 5 -25 10 -9 19 -7 36 7 19 16 21 21 11 38 -10 15 -12 16 -7
2 3 -12 0 -18 -10 -18 -8 0 -13 4 -10 9 3 5 -1 14 -9 21 -8 7 -12 16 -9 21 8
13 2 11 -21 -8z"/>
<path d="M3175 7889 c-3 -4 2 -6 10 -5 21 3 28 13 10 13 -9 0 -18 -4 -20 -8z"/>
<path d="M3380 7884 c0 -8 5 -12 10 -9 6 4 8 11 5 16 -9 14 -15 11 -15 -7z"/>
<path d="M2473 7874 c-6 -17 12 -34 37 -33 8 0 5 4 -7 9 -25 10 -30 26 -10 33
9 4 9 6 -1 6 -7 1 -15 -6 -19 -15z"/>
<path d="M2985 7880 c-3 -5 -1 -10 4 -10 6 0 11 5 11 10 0 6 -2 10 -4 10 -3 0
-8 -4 -11 -10z"/>
<path d="M8010 7865 c13 -14 26 -25 28 -25 3 0 -5 11 -18 25 -13 14 -26 25
-28 25 -3 0 5 -11 18 -25z"/>
<path d="M2505 7870 c-3 -5 -1 -10 4 -10 6 0 11 5 11 10 0 6 -2 10 -4 10 -3 0
-8 -4 -11 -10z"/>
<path d="M2660 7854 c0 -8 5 -12 10 -9 6 4 8 11 5 16 -9 14 -15 11 -15 -7z"/>
<path d="M3080 7850 c0 -6 7 -10 15 -10 8 0 15 2 15 4 0 2 -7 6 -15 10 -8 3
-15 1 -15 -4z"/>
<path d="M2380 7815 c-13 -14 -19 -25 -14 -25 8 1 50 50 41 50 -2 0 -14 -11
-27 -25z"/>
<path d="M3270 7820 c0 -5 5 -10 11 -10 5 0 7 5 4 10 -3 6 -8 10 -11 10 -2 0
-4 -4 -4 -10z"/>
<path d="M3360 7800 c0 -5 5 -10 10 -10 6 0 10 5 10 10 0 6 -4 10 -10 10 -5 0
-10 -4 -10 -10z"/>
<path d="M3493 7765 c0 -22 2 -30 4 -17 2 12 2 30 0 40 -3 9 -5 -1 -4 -23z"/>
<path d="M6962 7710 c0 -14 2 -19 5 -12 2 6 2 18 0 25 -3 6 -5 1 -5 -13z"/>
<path d="M6971 7669 c-1 -9 7 -25 17 -36 9 -10 14 -14 10 -8 -4 6 -12 22 -17
36 -6 15 -10 18 -10 8z"/>
<path d="M3400 7600 c0 -5 5 -10 10 -10 6 0 10 5 10 10 0 6 -4 10 -10 10 -5 0
-10 -4 -10 -10z"/>
<path d="M7153 7553 c26 -2 68 -2 95 0 26 2 4 3 -48 3 -52 0 -74 -1 -47 -3z"/>
<path d="M7318 7543 c12 -2 30 -2 40 0 9 3 -1 5 -23 4 -22 0 -30 -2 -17 -4z"/>
<path d="M3078 7533 c7 -3 16 -2 19 1 4 3 -2 6 -13 5 -11 0 -14 -3 -6 -6z"/>
<path d="M7410 7525 c46 -18 64 -17 25 0 -16 8 -37 14 -45 14 -8 0 1 -7 20
-14z"/>
<path d="M3038 7523 c7 -3 16 -2 19 1 4 3 -2 6 -13 5 -11 0 -14 -3 -6 -6z"/>
<path d="M7681 7194 c0 -11 3 -14 6 -6 3 7 2 16 -1 19 -3 4 -6 -2 -5 -13z"/>
<path d="M7693 7125 c0 -27 2 -38 4 -22 2 15 2 37 0 50 -2 12 -4 0 -4 -28z"/>
<path d="M2712 7135 c0 -16 2 -22 5 -12 2 9 2 23 0 30 -3 6 -5 -1 -5 -18z"/>
<path d="M2702 7050 c0 -14 2 -19 5 -12 2 6 2 18 0 25 -3 6 -5 1 -5 -13z"/>
<path d="M3688 7043 c6 -2 18 -2 25 0 6 3 1 5 -13 5 -14 0 -19 -2 -12 -5z"/>
<path d="M3808 7043 c6 -2 18 -2 25 0 6 3 1 5 -13 5 -14 0 -19 -2 -12 -5z"/>
<path d="M6498 7043 c7 -3 16 -2 19 1 4 3 -2 6 -13 5 -11 0 -14 -3 -6 -6z"/>
<path d="M2112 7015 c0 -16 2 -22 5 -12 2 9 2 23 0 30 -3 6 -5 -1 -5 -18z"/>
<path d="M3888 7033 c6 -2 18 -2 25 0 6 3 1 5 -13 5 -14 0 -19 -2 -12 -5z"/>
<path d="M6428 7033 c7 -3 16 -2 19 1 4 3 -2 6 -13 5 -11 0 -14 -3 -6 -6z"/>
<path d="M6730 7030 c8 -5 22 -10 30 -10 13 0 13 1 0 10 -8 5 -22 10 -30 10
-13 0 -13 -1 0 -10z"/>
<path d="M3938 7023 c7 -3 16 -2 19 1 4 3 -2 6 -13 5 -11 0 -14 -3 -6 -6z"/>
<path d="M6365 7020 c-13 -5 -14 -9 -5 -9 8 0 24 4 35 9 13 5 14 9 5 9 -8 0
-24 -4 -35 -9z"/>
<path d="M6785 7010 c3 -5 11 -10 16 -10 6 0 31 -14 56 -32 25 -17 43 -26 40
-20 -9 13 -97 72 -109 72 -5 0 -6 -4 -3 -10z"/>
<path d="M7704 6680 c0 -179 2 -252 3 -162 2 89 2 235 0 325 -1 89 -3 16 -3
-163z"/>
<path d="M2114 6640 c0 -184 2 -260 3 -167 2 92 2 242 0 335 -1 92 -3 16 -3
-168z"/>
<path d="M6210 6960 c-8 -5 -10 -10 -5 -10 6 0 17 5 25 10 8 5 11 10 5 10 -5
0 -17 -5 -25 -10z"/>
<path d="M4240 6906 c0 -3 9 -10 20 -16 11 -6 20 -8 20 -6 0 3 -9 10 -20 16
-11 6 -20 8 -20 6z"/>
<path d="M6074 6884 c-18 -14 -18 -15 4 -4 12 6 22 13 22 15 0 8 -5 6 -26 -11z"/>
<path d="M4780 6456 c0 -2 8 -10 18 -17 15 -13 16 -12 3 4 -13 16 -21 21 -21
13z"/>
<path d="M4830 6400 c0 -5 5 -10 10 -10 6 0 10 5 10 10 0 6 -4 10 -10 10 -5 0
-10 -4 -10 -10z"/>
<path d="M5510 6401 c0 -17 18 -21 24 -6 3 9 0 15 -9 15 -8 0 -15 -4 -15 -9z"/>
<path d="M2691 6344 c0 -11 3 -14 6 -6 3 7 2 16 -1 19 -3 4 -6 -2 -5 -13z"/>
<path d="M5566 6243 c3 -23 6 -167 7 -320 1 -409 -25 -526 -140 -619 -122
-100 -345 -113 -488 -30 -77 45 -124 126 -158 269 -19 81 -21 120 -21 332 0
132 3 269 7 305 l6 65 -19 -55 c-21 -59 -35 -120 -45 -187 l-7 -43 -56 -2
c-51 -1 -52 -2 -14 -5 25 -3 40 -8 36 -14 -3 -6 2 -19 12 -30 17 -19 17 -20
-1 -13 -11 5 -16 4 -12 -3 4 -6 -4 -9 -21 -6 -15 2 -37 5 -49 6 -12 0 -19 5
-15 12 12 19 10 34 -4 28 -8 -3 -14 -13 -14 -23 0 -28 -20 -35 -21 -8 0 13 -3
17 -6 11 -3 -9 -10 -10 -23 -3 -10 6 -29 8 -42 6 -13 -2 -29 1 -35 6 -7 6 -13
7 -13 2 0 -5 -5 -2 -11 6 -9 13 -10 13 -6 0 2 -8 9 -16 15 -16 24 -3 26 -4 14
-16 -8 -8 -15 -8 -27 2 -12 10 -15 10 -15 0 0 -8 -3 -10 -6 -7 -4 3 -16 2 -26
-4 -15 -8 -23 -8 -32 1 -8 8 -7 10 5 5 20 -8 35 10 18 21 -8 4 -9 3 -5 -4 4
-7 2 -12 -3 -12 -6 0 -11 5 -11 10 0 6 -8 10 -17 10 -15 0 -16 2 -3 10 13 8
12 10 -2 10 -13 0 -18 -8 -18 -25 0 -24 -10 -32 -23 -19 -9 10 14 53 32 57 10
3 8 5 -6 6 -14 1 -23 -5 -23 -14 0 -8 -4 -15 -10 -15 -5 0 -10 -8 -11 -17 0
-12 -2 -13 -6 -5 -3 7 1 20 9 29 11 14 11 16 -2 11 -22 -7 -25 -47 -3 -64 41
-32 178 -62 364 -79 l66 -6 6 -107 c8 -130 27 -222 63 -304 l28 -61 -30 -24
c-59 -47 -351 -242 -441 -293 -51 -29 -90 -56 -87 -62 3 -5 12 -4 22 4 8 7 13
9 11 3 -3 -5 -13 -29 -23 -52 -10 -24 -21 -41 -25 -39 -3 2 -6 -6 -7 -17 0
-12 -4 -31 -9 -41 -7 -15 9 -10 71 24 114 63 291 171 426 262 65 43 120 78
123 78 3 0 38 -27 78 -60 41 -33 78 -60 84 -60 6 0 14 17 18 39 5 33 9 38 28
34 13 -3 17 -1 10 4 -6 4 50 8 127 8 81 0 136 -4 132 -9 -3 -5 2 -7 11 -3 13
5 19 -4 30 -41 l13 -47 82 83 83 83 157 -109 c203 -141 450 -292 477 -292 3 0
1 9 -5 20 -6 11 -10 26 -9 33 3 25 -1 38 -11 32 -5 -3 -10 -4 -10 -2 0 3 -7
20 -15 39 l-14 35 27 -5 c16 -2 -9 17 -63 48 -133 78 -466 307 -481 332 -3 4
10 53 30 107 31 89 66 264 66 335 0 22 4 26 33 27 17 1 41 3 52 4 11 1 63 5
115 9 200 15 311 65 264 118 -20 21 -33 16 -15 -6 10 -12 8 -16 -10 -21 -17
-6 -19 -9 -8 -16 11 -6 11 -9 1 -9 -7 0 -17 11 -22 25 -8 22 -13 24 -30 15
-11 -6 -18 -15 -16 -19 3 -4 -1 -8 -9 -8 -13 0 -13 3 -1 16 7 9 11 22 9 29 -4
9 3 11 21 8 14 -3 26 -1 26 3 0 10 -99 23 -111 15 -17 -10 -9 -25 9 -16 23 12
42 4 42 -16 0 -11 -3 -13 -8 -6 -4 6 -16 10 -26 8 -11 -1 -28 2 -39 8 -16 8
-17 12 -6 20 9 6 -4 7 -41 4 -30 -3 -70 -6 -87 -6 -18 0 -33 -3 -33 -7 0 -5
22 -6 49 -5 42 3 49 1 54 -17 5 -19 4 -20 -22 -3 -20 13 -23 13 -14 2 9 -12 7
-15 -13 -16 -18 -2 -22 1 -15 10 16 19 -49 7 -74 -13 -18 -15 -19 -15 -7 0 10
14 9 18 -5 24 -15 7 -13 9 12 15 23 6 16 8 -32 9 -70 1 -67 -2 -79 96 -4 33
-20 98 -35 145 -21 62 -27 73 -23 43z m33 -122 c4 -28 5 -54 1 -56 -4 -2 -7 1
-7 8 0 7 -4 35 -8 62 -4 28 -4 47 -1 44 4 -4 10 -30 15 -58z m-839 -31 c0 -5
-4 -10 -10 -10 -5 0 -10 5 -10 10 0 6 5 10 10 10 6 0 10 -4 10 -10z m-14 -76
c1 -19 -2 -37 -7 -40 -5 -2 -7 15 -6 40 2 51 11 51 13 0z m874 -9 c0 -8 -2
-15 -4 -15 -2 0 -6 7 -10 15 -3 8 -1 15 4 15 6 0 10 -7 10 -15z m-896 -70
c-19 -29 -26 -32 -17 -7 6 15 5 16 -12 2 -16 -13 -18 -13 -13 0 3 8 13 14 22
14 9 -1 16 2 16 7 0 5 5 9 10 9 6 0 3 -11 -6 -25z m1194 12 c18 -12 14 -26 -7
-24 -11 0 -17 5 -15 9 3 4 0 8 -5 8 -6 0 -11 4 -11 9 0 10 19 9 38 -2z m-207
-14 c12 -15 12 -16 -3 -10 -9 3 -19 1 -22 -6 -2 -7 -5 -4 -5 7 -1 13 -6 17
-21 13 -11 -3 -18 -1 -14 4 9 15 51 10 65 -8z m279 -17 c0 -2 -7 -7 -16 -10
-8 -3 -12 -2 -9 4 6 10 25 14 25 6z m-1663 -26 c1 -11 -2 -18 -8 -15 -11 7
-12 35 -1 35 4 0 8 -9 9 -20z m190 7 c11 -18 12 -36 3 -42 -5 -3 -7 4 -5 15 4
22 -26 43 -33 22 -2 -6 -10 -8 -18 -5 -7 3 -12 8 -10 12 8 12 55 11 63 -2z
m1541 -12 c-3 -3 -9 2 -12 12 -6 14 -5 15 5 6 7 -7 10 -15 7 -18z m-1658 -9
c0 -2 -8 -10 -17 -17 -16 -13 -17 -12 -4 4 13 16 21 21 21 13z m57 -11 c0 -8
-4 -12 -9 -9 -5 3 -6 10 -3 15 9 13 12 11 12 -6z"/>
<path d="M2103 6185 c0 -33 2 -45 4 -27 2 18 2 45 0 60 -2 15 -4 0 -4 -33z"/>
<path d="M3204 5960 c0 -107 2 -151 3 -97 2 53 2 141 0 195 -1 53 -3 9 -3 -98z"/>
<path d="M2672 6050 c0 -14 2 -19 5 -12 2 6 2 18 0 25 -3 6 -5 1 -5 -13z"/>
<path d="M7732 6030 c0 -14 2 -19 5 -12 2 6 2 18 0 25 -3 6 -5 1 -5 -13z"/>
<path d="M7741 5984 c0 -11 3 -14 6 -6 3 7 2 16 -1 19 -3 4 -6 -2 -5 -13z"/>
<path d="M4330 5963 c0 -9 249 -7 258 1 3 3 -54 6 -126 6 -73 0 -132 -3 -132
-7z"/>
<path d="M6080 5930 c0 -11 4 -20 9 -20 5 0 7 9 4 20 -3 11 -7 20 -9 20 -2 0
-4 -9 -4 -20z"/>
<path d="M7751 5934 c0 -11 3 -14 6 -6 3 7 2 16 -1 19 -3 4 -6 -2 -5 -13z"/>
<path d="M4614 5929 c-3 -6 -1 -16 4 -21 8 -8 11 -5 9 11 -1 24 -3 25 -13 10z"/>
<path d="M4640 5917 c0 -20 4 -25 15 -21 13 5 13 9 3 23 -7 9 -14 18 -15 20
-2 2 -3 -8 -3 -22z"/>
<path d="M7761 5900 c0 -8 4 -24 9 -35 5 -13 9 -14 9 -5 0 8 -4 24 -9 35 -5
13 -9 14 -9 5z"/>
<path d="M8475 5691 c19 -23 75 -66 75 -59 0 2 -21 21 -47 43 -27 21 -39 28
-28 16z"/>
<path d="M8200 5270 c0 -5 7 -10 16 -10 8 0 12 5 9 10 -3 6 -10 10 -16 10 -5
0 -9 -4 -9 -10z"/>
<path d="M8872 5135 c0 -16 2 -22 5 -12 2 9 2 23 0 30 -3 6 -5 -1 -5 -18z"/>
<path d="M8851 5073 c-10 -26 -10 -27 4 -9 8 11 15 23 15 28 0 15 -7 8 -19
-19z"/>
<path d="M8650 4970 c-18 -12 -2 -12 25 0 13 6 15 9 5 9 -8 0 -22 -4 -30 -9z"/>
<path d="M6790 4900 c-19 -11 -31 -19 -27 -20 11 0 67 29 67 35 0 7 -1 7 -40
-15z"/>
<path d="M8492 4874 l-47 -47 45 38 c62 52 65 55 56 55 -4 0 -28 -21 -54 -46z"/>
<path d="M5371 4814 c0 -11 3 -14 6 -6 3 7 2 16 -1 19 -3 4 -6 -2 -5 -13z"/>
<path d="M5391 4724 c0 -11 3 -14 6 -6 3 7 2 16 -1 19 -3 4 -6 -2 -5 -13z"/>
<path d="M8311 4484 c0 -11 3 -14 6 -6 3 7 2 16 -1 19 -3 4 -6 -2 -5 -13z"/>
<path d="M8302 4410 c0 -14 2 -19 5 -12 2 6 2 18 0 25 -3 6 -5 1 -5 -13z"/>
<path d="M4821 4194 c0 -11 3 -14 6 -6 3 7 2 16 -1 19 -3 4 -6 -2 -5 -13z"/>
<path d="M4781 4004 c0 -11 3 -14 6 -6 3 7 2 16 -1 19 -3 4 -6 -2 -5 -13z"/>
<path d="M4265 3860 c3 -5 8 -10 11 -10 2 0 4 5 4 10 0 6 -5 10 -11 10 -5 0
-7 -4 -4 -10z"/>
<path d="M6040 3859 c0 -5 5 -7 10 -4 6 3 10 8 10 11 0 2 -4 4 -10 4 -5 0 -10
-5 -10 -11z"/>
<path d="M3751 3833 c-10 -26 -10 -27 4 -9 8 11 15 23 15 28 0 15 -7 8 -19
-19z"/>
<path d="M4741 3804 c0 -11 3 -14 6 -6 3 7 2 16 -1 19 -3 4 -6 -2 -5 -13z"/>
<path d="M4030 3790 c-9 -6 -10 -10 -3 -10 6 0 15 5 18 10 8 12 4 12 -15 0z"/>
<path d="M5966 3773 c-6 -14 -5 -15 5 -6 7 7 10 15 7 18 -3 3 -9 -2 -12 -12z"/>
<path d="M3865 3720 c-3 -5 -2 -10 4 -10 5 0 13 5 16 10 3 6 2 10 -4 10 -5 0
-13 -4 -16 -10z"/>
<path d="M4390 3701 c0 -6 4 -13 10 -16 6 -3 7 1 4 9 -7 18 -14 21 -14 7z"/>
<path d="M4691 3674 c0 -11 3 -14 6 -6 3 7 2 16 -1 19 -3 4 -6 -2 -5 -13z"/>
<path d="M5646 3643 c9 -36 10 -38 16 -16 3 10 -1 24 -9 32 -12 10 -13 8 -7
-16z"/>
<path d="M4443 3642 c-7 -4 -9 -13 -4 -21 6 -9 10 -7 14 8 3 12 4 21 4 21 -1
0 -7 -4 -14 -8z"/>
<path d="M4679 3639 c0 -2 -2 -20 -4 -39 l-4 -35 10 34 c6 18 8 36 5 39 -3 3
-6 3 -7 1z"/>
<path d="M4641 3614 c0 -11 3 -14 6 -6 3 7 2 16 -1 19 -3 4 -6 -2 -5 -13z"/>
<path d="M4701 3614 c0 -11 3 -14 6 -6 3 7 2 16 -1 19 -3 4 -6 -2 -5 -13z"/>
<path d="M5666 3553 c4 -16 13 -39 21 -53 9 -15 12 -17 8 -5 -4 11 -11 35 -17
53 -11 39 -21 43 -12 5z"/>
<path d="M7701 3564 c0 -11 3 -14 6 -6 3 7 2 16 -1 19 -3 4 -6 -2 -5 -13z"/>
<path d="M5775 3520 c-3 -5 -1 -10 4 -10 6 0 11 5 11 10 0 6 -2 10 -4 10 -3 0
-8 -4 -11 -10z"/>
<path d="M5809 3513 c-13 -16 -12 -17 4 -4 9 7 17 15 17 17 0 8 -8 3 -21 -13z"/>
<path d="M4514 3508 c-10 -15 32 -48 60 -47 20 1 20 1 1 7 -11 4 -29 13 -40
19 -17 11 -18 14 -5 23 9 6 10 10 3 10 -6 0 -15 -5 -19 -12z"/>
<path d="M4649 3473 c-13 -16 -12 -17 4 -4 16 13 21 21 13 21 -2 0 -10 -8 -17
-17z"/>
<path d="M5780 3479 c0 -5 5 -7 10 -4 6 3 10 8 10 11 0 2 -4 4 -10 4 -5 0 -10
-5 -10 -11z"/>
<path d="M7692 3460 c0 -19 2 -27 5 -17 2 9 2 25 0 35 -3 9 -5 1 -5 -18z"/>
<path d="M5718 3473 c7 -3 16 -2 19 1 4 3 -2 6 -13 5 -11 0 -14 -3 -6 -6z"/>
<path d="M8261 3264 c0 -11 3 -14 6 -6 3 7 2 16 -1 19 -3 4 -6 -2 -5 -13z"/>
<path d="M7490 3065 c-19 -14 -30 -25 -25 -25 6 0 24 11 40 25 39 31 30 31
-15 0z"/>
<path d="M7426 3033 c-3 -4 -32 -12 -64 -19 -41 -9 -48 -13 -26 -13 17 -1 46
4 65 10 36 12 61 29 43 29 -6 0 -14 -3 -18 -7z"/>
<path d="M7130 2999 c-65 -7 -86 -17 -120 -55 -23 -26 -22 -26 12 3 39 33 66
41 153 45 28 2 41 5 30 8 -11 3 -45 3 -75 -1z"/>
<path d="M7243 2993 c9 -2 23 -2 30 0 6 3 -1 5 -18 5 -16 0 -22 -2 -12 -5z"/>
<path d="M6953 2725 c0 -38 2 -53 4 -32 2 20 2 52 0 70 -2 17 -4 1 -4 -38z"/>
<path d="M7985 2688 l-40 -43 43 40 c39 36 47 45 39 45 -2 0 -21 -19 -42 -42z"/>
</g>
</svg>
